<mxfile host="app.diagrams.net" agent="Mozilla/5.0 (Windows NT 10.0; Win64; x64) AppleWebKit/537.36 (KHTML, like Gecko) Chrome/130.0.0.0 Safari/537.36" version="24.8.4">
  <diagram name="Page-1" id="Yzn_14ihajsN3kXiNCUo">
    <mxGraphModel dx="1434" dy="833" grid="1" gridSize="10" guides="1" tooltips="1" connect="1" arrows="1" fold="1" page="1" pageScale="1" pageWidth="850" pageHeight="1100" math="0" shadow="0">
      <root>
        <mxCell id="0" />
        <mxCell id="1" parent="0" />
        <mxCell id="7-7F8WBNP3s1y7IQ5Qqv-4" value="AWS Cloud" style="sketch=0;outlineConnect=0;gradientColor=none;html=1;whiteSpace=wrap;fontSize=12;fontStyle=0;shape=mxgraph.aws4.group;grIcon=mxgraph.aws4.group_aws_cloud;strokeColor=#FF8000;fillColor=none;verticalAlign=top;align=left;spacingLeft=30;fontColor=#AAB7B8;dashed=0;" vertex="1" parent="1">
          <mxGeometry x="240" y="10" width="680" height="610" as="geometry" />
        </mxCell>
        <mxCell id="7-7F8WBNP3s1y7IQ5Qqv-8" value="VPC" style="sketch=0;outlineConnect=0;gradientColor=none;html=1;whiteSpace=wrap;fontSize=12;fontStyle=0;shape=mxgraph.aws4.group;grIcon=mxgraph.aws4.group_vpc;strokeColor=#3399FF;fillColor=none;verticalAlign=top;align=left;spacingLeft=30;fontColor=#879196;dashed=0;" vertex="1" parent="1">
          <mxGeometry x="260" y="45" width="640" height="540" as="geometry" />
        </mxCell>
        <mxCell id="7-7F8WBNP3s1y7IQ5Qqv-9" value="" style="rounded=1;arcSize=10;dashed=1;strokeColor=#F59D56;fillColor=none;gradientColor=none;dashPattern=8 4;strokeWidth=2;" vertex="1" parent="1">
          <mxGeometry x="300" y="79" width="270" height="461" as="geometry" />
        </mxCell>
        <mxCell id="7-7F8WBNP3s1y7IQ5Qqv-10" value="" style="rounded=1;arcSize=10;dashed=1;strokeColor=#F59D56;fillColor=none;gradientColor=none;dashPattern=8 4;strokeWidth=2;" vertex="1" parent="1">
          <mxGeometry x="600" y="79" width="270" height="461" as="geometry" />
        </mxCell>
        <mxCell id="7-7F8WBNP3s1y7IQ5Qqv-11" value="" style="sketch=0;verticalLabelPosition=bottom;sketch=0;aspect=fixed;html=1;verticalAlign=top;strokeColor=none;fillColor=#000000;align=center;outlineConnect=0;pointerEvents=1;shape=mxgraph.citrix2.laptop;" vertex="1" parent="1">
          <mxGeometry x="30" y="185.71" width="50" height="38.57" as="geometry" />
        </mxCell>
        <mxCell id="7-7F8WBNP3s1y7IQ5Qqv-12" value="" style="sketch=0;verticalLabelPosition=bottom;sketch=0;aspect=fixed;html=1;verticalAlign=top;strokeColor=none;fillColor=#000000;align=center;outlineConnect=0;pointerEvents=1;shape=mxgraph.citrix2.mobile;" vertex="1" parent="1">
          <mxGeometry x="120" y="180.00000000000003" width="25.255" height="50" as="geometry" />
        </mxCell>
        <mxCell id="7-7F8WBNP3s1y7IQ5Qqv-25" value="" style="edgeStyle=orthogonalEdgeStyle;rounded=0;orthogonalLoop=1;jettySize=auto;html=1;" edge="1" parent="1" source="7-7F8WBNP3s1y7IQ5Qqv-23" target="7-7F8WBNP3s1y7IQ5Qqv-12">
          <mxGeometry relative="1" as="geometry">
            <Array as="points">
              <mxPoint x="93" y="245.71" />
              <mxPoint x="133" y="245.71" />
            </Array>
          </mxGeometry>
        </mxCell>
        <mxCell id="7-7F8WBNP3s1y7IQ5Qqv-26" style="edgeStyle=orthogonalEdgeStyle;rounded=0;orthogonalLoop=1;jettySize=auto;html=1;" edge="1" parent="1" source="7-7F8WBNP3s1y7IQ5Qqv-23" target="7-7F8WBNP3s1y7IQ5Qqv-11">
          <mxGeometry relative="1" as="geometry">
            <Array as="points">
              <mxPoint x="93" y="245.71" />
              <mxPoint x="55" y="245.71" />
            </Array>
          </mxGeometry>
        </mxCell>
        <mxCell id="7-7F8WBNP3s1y7IQ5Qqv-27" style="edgeStyle=orthogonalEdgeStyle;rounded=0;orthogonalLoop=1;jettySize=auto;html=1;" edge="1" parent="1" source="7-7F8WBNP3s1y7IQ5Qqv-23" target="7-7F8WBNP3s1y7IQ5Qqv-4">
          <mxGeometry relative="1" as="geometry">
            <mxPoint x="230" y="351.5" as="targetPoint" />
            <Array as="points">
              <mxPoint x="240" y="307" />
              <mxPoint x="240" y="307" />
            </Array>
          </mxGeometry>
        </mxCell>
        <mxCell id="7-7F8WBNP3s1y7IQ5Qqv-23" value="" style="outlineConnect=0;dashed=0;verticalLabelPosition=bottom;verticalAlign=top;align=center;html=1;shape=mxgraph.aws3.users;fillColor=#D2D3D3;gradientColor=none;" vertex="1" parent="1">
          <mxGeometry x="60" y="275.71" width="66" height="63" as="geometry" />
        </mxCell>
        <mxCell id="7-7F8WBNP3s1y7IQ5Qqv-31" value="" style="edgeStyle=orthogonalEdgeStyle;rounded=0;orthogonalLoop=1;jettySize=auto;html=1;" edge="1" parent="1" source="7-7F8WBNP3s1y7IQ5Qqv-28" target="7-7F8WBNP3s1y7IQ5Qqv-29">
          <mxGeometry relative="1" as="geometry" />
        </mxCell>
        <mxCell id="7-7F8WBNP3s1y7IQ5Qqv-28" value="" style="sketch=0;outlineConnect=0;fontColor=#232F3E;gradientColor=none;fillColor=#8C4FFF;strokeColor=none;dashed=0;verticalLabelPosition=bottom;verticalAlign=top;align=center;html=1;fontSize=12;fontStyle=0;aspect=fixed;pointerEvents=1;shape=mxgraph.aws4.application_load_balancer;" vertex="1" parent="1">
          <mxGeometry x="320" y="260.71" width="78" height="78" as="geometry" />
        </mxCell>
        <mxCell id="7-7F8WBNP3s1y7IQ5Qqv-29" value="" style="whiteSpace=wrap;html=1;aspect=fixed;fillColor=none;strokeColor=#D79B00;" vertex="1" parent="1">
          <mxGeometry x="475" y="194.71" width="210" height="210" as="geometry" />
        </mxCell>
        <mxCell id="7-7F8WBNP3s1y7IQ5Qqv-32" value="" style="sketch=0;points=[[0,0,0],[0.25,0,0],[0.5,0,0],[0.75,0,0],[1,0,0],[0,1,0],[0.25,1,0],[0.5,1,0],[0.75,1,0],[1,1,0],[0,0.25,0],[0,0.5,0],[0,0.75,0],[1,0.25,0],[1,0.5,0],[1,0.75,0]];outlineConnect=0;fontColor=#232F3E;fillColor=#ED7100;strokeColor=#ffffff;dashed=0;verticalLabelPosition=bottom;verticalAlign=top;align=center;html=1;fontSize=12;fontStyle=0;aspect=fixed;shape=mxgraph.aws4.resourceIcon;resIcon=mxgraph.aws4.fargate;" vertex="1" parent="1">
          <mxGeometry x="530.64" y="249.71" width="98.71" height="98.71" as="geometry" />
        </mxCell>
        <mxCell id="7-7F8WBNP3s1y7IQ5Qqv-35" value="" style="outlineConnect=0;dashed=0;verticalLabelPosition=bottom;verticalAlign=top;align=center;html=1;shape=mxgraph.aws3.ecr_registry;fillColor=#F58534;gradientColor=none;" vertex="1" parent="1">
          <mxGeometry x="760" y="259.41999999999996" width="80" height="79.29" as="geometry" />
        </mxCell>
        <mxCell id="7-7F8WBNP3s1y7IQ5Qqv-40" style="edgeStyle=orthogonalEdgeStyle;rounded=0;orthogonalLoop=1;jettySize=auto;html=1;" edge="1" parent="1" source="7-7F8WBNP3s1y7IQ5Qqv-36" target="7-7F8WBNP3s1y7IQ5Qqv-35">
          <mxGeometry relative="1" as="geometry" />
        </mxCell>
        <mxCell id="7-7F8WBNP3s1y7IQ5Qqv-36" value="" style="outlineConnect=0;dashed=0;verticalLabelPosition=bottom;verticalAlign=top;align=center;html=1;shape=mxgraph.aws3.user;fillColor=#D2D3D3;gradientColor=none;" vertex="1" parent="1">
          <mxGeometry x="777.5" y="650" width="45" height="63" as="geometry" />
        </mxCell>
        <mxCell id="7-7F8WBNP3s1y7IQ5Qqv-41" value="Developer" style="text;html=1;align=center;verticalAlign=middle;resizable=0;points=[];autosize=1;strokeColor=none;fillColor=none;" vertex="1" parent="1">
          <mxGeometry x="760" y="720" width="80" height="30" as="geometry" />
        </mxCell>
        <mxCell id="7-7F8WBNP3s1y7IQ5Qqv-42" value="" style="edgeStyle=orthogonalEdgeStyle;rounded=0;orthogonalLoop=1;jettySize=auto;html=1;" edge="1" parent="1">
          <mxGeometry relative="1" as="geometry">
            <mxPoint x="685" y="299.21" as="sourcePoint" />
            <mxPoint x="762" y="299.21" as="targetPoint" />
          </mxGeometry>
        </mxCell>
        <mxCell id="7-7F8WBNP3s1y7IQ5Qqv-43" value="Usuarios" style="text;html=1;align=center;verticalAlign=middle;resizable=0;points=[];autosize=1;strokeColor=none;fillColor=none;" vertex="1" parent="1">
          <mxGeometry x="58" y="338.71" width="70" height="30" as="geometry" />
        </mxCell>
        <mxCell id="7-7F8WBNP3s1y7IQ5Qqv-44" value="Web" style="text;html=1;align=center;verticalAlign=middle;resizable=0;points=[];autosize=1;strokeColor=none;fillColor=none;" vertex="1" parent="1">
          <mxGeometry x="30" y="150" width="50" height="30" as="geometry" />
        </mxCell>
        <mxCell id="7-7F8WBNP3s1y7IQ5Qqv-45" value="Aplicacion" style="text;html=1;align=center;verticalAlign=middle;resizable=0;points=[];autosize=1;strokeColor=none;fillColor=none;" vertex="1" parent="1">
          <mxGeometry x="92.63" y="150" width="80" height="30" as="geometry" />
        </mxCell>
        <mxCell id="7-7F8WBNP3s1y7IQ5Qqv-46" value="Load Balancer" style="text;html=1;align=center;verticalAlign=middle;resizable=0;points=[];autosize=1;strokeColor=none;fillColor=none;" vertex="1" parent="1">
          <mxGeometry x="310" y="224.27999999999997" width="100" height="30" as="geometry" />
        </mxCell>
        <mxCell id="7-7F8WBNP3s1y7IQ5Qqv-47" value="ECS Cluster" style="text;html=1;align=center;verticalAlign=middle;resizable=0;points=[];autosize=1;strokeColor=none;fillColor=none;" vertex="1" parent="1">
          <mxGeometry x="480" y="194.70999999999998" width="90" height="30" as="geometry" />
        </mxCell>
        <mxCell id="7-7F8WBNP3s1y7IQ5Qqv-48" value="Fargate" style="text;html=1;align=center;verticalAlign=middle;resizable=0;points=[];autosize=1;strokeColor=none;fillColor=none;" vertex="1" parent="1">
          <mxGeometry x="520" y="240" width="60" height="30" as="geometry" />
        </mxCell>
        <mxCell id="7-7F8WBNP3s1y7IQ5Qqv-49" value="ECR" style="text;html=1;align=center;verticalAlign=middle;resizable=0;points=[];autosize=1;strokeColor=none;fillColor=none;" vertex="1" parent="1">
          <mxGeometry x="772.5" y="230.70999999999998" width="50" height="30" as="geometry" />
        </mxCell>
        <mxCell id="7-7F8WBNP3s1y7IQ5Qqv-50" value="Availability Zone 1" style="text;html=1;align=center;verticalAlign=middle;resizable=0;points=[];autosize=1;strokeColor=none;fillColor=none;" vertex="1" parent="1">
          <mxGeometry x="365" y="540" width="120" height="30" as="geometry" />
        </mxCell>
        <mxCell id="7-7F8WBNP3s1y7IQ5Qqv-51" value="Availability Zone 1" style="text;html=1;align=center;verticalAlign=middle;resizable=0;points=[];autosize=1;strokeColor=none;fillColor=none;" vertex="1" parent="1">
          <mxGeometry x="675" y="535" width="120" height="30" as="geometry" />
        </mxCell>
      </root>
    </mxGraphModel>
  </diagram>
</mxfile>
